<svg width="16" height="16" viewBox="0 0 16 16" fill="none" xmlns="http://www.w3.org/2000/svg">
<g clip-path="url(#clip0_11_21)">
<path d="M8 0C5.87827 0 3.84344 0.842855 2.34315 2.34315C0.842855 3.84344 0 5.87827 0 8C0 10.1217 0.842855 12.1566 2.34315 13.6569C3.84344 15.1571 5.87827 16 8 16C10.1217 16 12.1566 15.1571 13.6569 13.6569C15.1571 12.1566 16 10.1217 16 8C16 5.87827 15.1571 3.84344 13.6569 2.34315C12.1566 0.842855 10.1217 0 8 0ZM8.31 3.876C8.96612 3.85725 9.61069 4.05137 10.1473 4.42933C10.9573 5.02 11.124 5.66667 11.124 6.096C11.1264 6.23154 11.1071 6.36659 11.0667 6.496C10.959 6.83265 10.757 7.13132 10.4846 7.35656C10.2122 7.5818 9.88088 7.72413 9.53 7.76667C9.38544 7.78683 9.23989 7.79908 9.094 7.80333C8.42733 7.80333 8.20733 7.53 8.20733 7.22333C8.20733 6.80733 8.60733 6.314 8.89733 6.314C8.93364 6.31449 8.96914 6.32486 9 6.344C9.0766 6.38586 9.16272 6.40721 9.25 6.406C9.27424 6.41052 9.2991 6.41052 9.32333 6.406C9.41741 6.40001 9.50556 6.35803 9.5695 6.28876C9.63343 6.21949 9.66823 6.12825 9.66667 6.034C9.66667 5.66733 9.25 5.20067 8.33333 5.20067C7.98273 5.20332 7.63447 5.25814 7.3 5.36333C6.67289 5.56011 6.13714 5.97523 5.79 6.53333C5.4909 6.97627 5.3318 7.49887 5.33333 8.03333C5.3303 8.48818 5.44515 8.93606 5.66667 9.33333C5.92081 9.75738 6.28172 10.1073 6.71337 10.3483C7.14503 10.5893 7.63234 10.7129 8.12667 10.7067H8.28667C9.62 10.6333 9.92667 9.98 10.224 9.85333C10.2888 9.83213 10.3556 9.81761 10.4233 9.81C10.64 9.81 10.92 9.91933 11.1133 10.3833C11.1435 10.4457 11.1595 10.514 11.16 10.5833C11.16 11.3467 9.38 12.0367 8.34667 12.09H8.11333C7.3675 12.0966 6.63304 11.907 5.98362 11.5402C5.3342 11.1734 4.79266 10.6422 4.41333 10C4.074 9.4027 3.89702 8.72695 3.9 8.04C3.90124 7.23498 4.14138 6.44843 4.59 5.78C5.12492 4.97835 5.92315 4.38882 6.84667 4.11333C7.31946 3.95996 7.81296 3.87992 8.31 3.876Z" fill="url(#paint0_linear_11_21)"/>
</g>
<defs>
<linearGradient id="paint0_linear_11_21" x1="-0.428571" y1="4.51485" x2="13.9697" y2="5.68772" gradientUnits="userSpaceOnUse">
<stop stop-color="#01C3CC"/>
<stop offset="0.38099" stop-color="#445CE9"/>
<stop offset="1" stop-color="#7D2AE7"/>
</linearGradient>
<clipPath id="clip0_11_21">
<rect width="16" height="16" fill="white"/>
</clipPath>
</defs>
</svg>
